<svg version="1.1" id="Layer_1" xmlns="http://www.w3.org/2000/svg" x="0" y="0" width="197.947" height="120.243" xml:space="preserve"><g fill-rule="evenodd" clip-rule="evenodd"><path fill="#53B748" d="M31.096 43.854c-1.801 1.564-4.006 2.88-6.615 3.948-2.61 1.067-4.86 1.729-6.75 1.985-1.891.255-3 .406-3.33.451-.33.045-.69.068-1.08.068h-2.79c-.63 0-1.575-.103-2.835-.309-1.26-.206-2.445-.706-3.555-1.5l-.136-.397-.09-.359-.09-.315-.09-.315.81-2.61c1.261-4.08 2.07-7.095 2.431-9.045l.09-.585.134-.766-.225-.63-.181-1.89c.54-.15.968-.292 1.283-.427.314-.135.697-.353 1.147-.653l1.021.54.094.315.324 1.575v1.53l-.359 1.08-1.123 3.465-1.216 2.88-.09.225-.72 1.935-.045.18-.405 1.08c-.06.12-.104.262-.135.427s-.045.308-.045.428c0 .87.84 1.44 2.52 1.71l1.396.18c1.47 0 3.285-.241 5.444-.721 2.16-.481 4.41-1.217 6.75-2.208 2.341-.992 4.261-1.983 5.761-2.975l.45-.316 1.17-.856c1.17-.871 1.755-1.698 1.755-2.479 0-.991-.841-2.366-2.521-4.124s-3.734-3.425-6.165-5.003c-2.43-1.578-5.183-3.095-8.257-4.552-3.075-1.458-6.458-2.892-10.147-4.305l-1.485-.541c-.45-.15-.765-.226-.945-.226-.21 0-.435.09-.675.27-.33-.03-.63-.137-.899-.318l-.317-.18-.36-.774.766-2.183.404-.272 1.44-.637c.3-.03.532-.03.697 0 .165.03.413.136.743.316l.81.316.36.226c.989.511 2.242 1.121 3.757 1.827 1.516.707 2.753 1.286 3.713 1.737l1.71.903c4.2 2.286 7.59 4.354 10.17 6.203 2.58 1.85 4.859 3.888 6.84 6.113s2.97 4.091 2.97 5.595c0 1.383-1.095 3.037-3.284 4.963z"/><path fill="#034EA2" d="M51.389 30.667c2.357 0 4.356.84 5.998 2.521 1.643 1.681 2.463 3.698 2.463 6.052 0 1.663-.439 3.152-1.319 4.47-.879 1.317-2.087 2.304-3.623 2.96-1.196.515-2.403.773-3.623.773-2.322 0-4.301-.764-5.937-2.292s-2.454-3.551-2.454-6.069c0-3.583 1.565-6.107 4.696-7.571a8.813 8.813 0 0 1 3.799-.844zm.15 1.333c-1.581-.012-2.816.633-3.707 1.933-.796 1.16-1.194 2.817-1.194 4.973 0 4.804 1.581 7.206 4.743 7.206 3.174 0 4.761-2.478 4.761-7.434 0-4.417-1.535-6.643-4.603-6.678zm10.787-.864h3.532l3.978 13.307c.082.294.229.441.441.441.225 0 .384-.146.478-.437l4.325-13.309 1.589-.003-4.394 13.643c-.574 1.777-1.553 2.665-2.936 2.665-1.431 0-2.409-.891-2.936-2.671l-4.077-13.636zm20.729 6.947h6.12v1.332h-6.12v4.803c0 .692.105 1.108.317 1.249.152.118.604.176 1.354.176h6.141v1.332h-8.241c-1.898 0-2.847-.92-2.847-2.76V34.142c0-2.004 1.019-3.006 3.055-3.006h7.709v1.332h-6.064c-.949 0-1.424.446-1.424 1.338v4.277zm11.836-17.748h3.275v24.376c0 .621.246.932.737.932h2.035v1.332h-4.015c-1.355 0-2.033-.756-2.033-2.267V20.335zM5.419 81.327v-22.32H.451v-1.692h14.472v1.692H9.848v22.32zm12.715-8.891h6.12v1.332h-6.12v4.803c0 .692.105 1.108.316 1.249.152.117.604.176 1.355.176h6.14v1.332h-8.241c-1.897 0-2.847-.92-2.847-2.76V68.493c0-2.004 1.019-3.006 3.056-3.006h7.708v1.332h-6.063c-.949 0-1.424.446-1.424 1.338v4.279zm22.429 4.444l1.281.562c-1.465 2.902-3.656 4.354-6.574 4.354-1.992 0-3.75-.646-5.273-1.936-1.863-1.582-2.795-3.675-2.795-6.277 0-1.595.369-3.072 1.107-4.432.773-1.442 1.839-2.514 3.198-3.218 1.219-.633 2.549-.95 3.991-.95 2.542 0 4.558 1.188 6.047 3.563l-1.439.635c-1.205-1.91-2.691-2.865-4.458-2.865-1.603 0-2.808.681-3.615 2.043-.725 1.222-1.088 2.749-1.088 4.581 0 1.997.311 3.642.931 4.934.831 1.727 2.13 2.59 3.896 2.59 2.129 0 3.727-1.195 4.791-3.584zm3.257 4.447V54.688h3.277v17.1h6.228v-6.301h3.276v15.84h-3.276v-8.208h-6.228v8.208zm15.921 0V67.904c0-1.947.791-2.92 2.373-2.92 1.113 0 2.209.804 3.287 2.412l5.045 7.551c.138.211.282.317.431.317.185 0 .276-.176.276-.528v-9.428h1.584v14.689c0 1.007-.371 1.51-1.112 1.51-.528 0-1.069-.4-1.622-1.202l-8.044-11.958c-.103-.17-.223-.255-.359-.255-.184 0-.274.146-.274.439v12.797h-1.585zM83.783 65.02c2.356 0 4.356.84 5.998 2.521 1.642 1.681 2.463 3.698 2.463 6.052 0 1.663-.44 3.153-1.319 4.471-.88 1.317-2.088 2.304-3.624 2.96-1.195.516-2.403.773-3.623.773-2.322 0-4.301-.765-5.937-2.293s-2.454-3.551-2.454-6.069c0-3.583 1.566-6.107 4.697-7.571a8.81 8.81 0 0 1 3.799-.844zm.15 1.332c-1.581-.012-2.816.633-3.706 1.933-.797 1.16-1.195 2.818-1.195 4.973 0 4.804 1.581 7.206 4.743 7.206 3.174 0 4.761-2.479 4.761-7.435-.001-4.416-1.535-6.642-4.603-6.677zm10.864-11.664h3.275v24.376c0 .621.246.932.737.932h2.035v1.332H96.83c-1.355 0-2.033-.756-2.033-2.267V54.688zm15.264 10.332c2.357 0 4.356.84 5.998 2.521 1.642 1.681 2.463 3.698 2.463 6.052 0 1.663-.44 3.153-1.319 4.471-.88 1.317-2.087 2.304-3.624 2.96-1.195.516-2.403.773-3.623.773-2.321 0-4.301-.765-5.937-2.293s-2.453-3.551-2.453-6.069c0-3.583 1.565-6.107 4.696-7.571a8.813 8.813 0 0 1 3.799-.844zm.149 1.332c-1.581-.012-2.816.633-3.706 1.933-.797 1.16-1.194 2.818-1.194 4.973 0 4.804 1.581 7.206 4.742 7.206 3.175 0 4.762-2.479 4.762-7.435-.001-4.416-1.535-6.642-4.604-6.677zm21.808 6.839h3.276v15.264h-3.276v-8.341c-1.174.977-2.531 1.465-4.069 1.465-2.185 0-4.005-.849-5.462-2.547-1.373-1.617-2.061-3.531-2.061-5.745 0-2.413.709-4.421 2.127-6.026 1.477-1.686 3.404-2.529 5.783-2.529 2.496 0 4.559 1.156 6.188 3.468l-1.529.683c-1.195-1.879-2.607-2.818-4.236-2.818-1.677 0-2.913.815-3.71 2.446-.609 1.243-.914 2.804-.914 4.681 0 2.112.388 3.801 1.164 5.068.812 1.326 1.94 1.988 3.387 1.988 1.328 0 2.299-.556 2.909-1.667.283-.515.424-1.252.424-2.212v-3.178zm6.282 8.136v-15.84h3.276v15.84H138.3zm1.655-23.975c.634 0 1.17.226 1.609.677s.66.994.66 1.626c0 .633-.227 1.175-.678 1.627a2.22 2.22 0 0 1-1.627.677c-.645 0-1.19-.226-1.636-.677-.445-.452-.668-1-.668-1.644 0-.645.229-1.188.686-1.627a2.304 2.304 0 0 1 1.654-.659zm7.878 15.084h6.12v1.332h-6.12v4.803c0 .692.105 1.108.317 1.249.152.117.604.176 1.354.176h6.141v1.332h-8.241c-1.898 0-2.847-.92-2.847-2.76V68.493c0-2.004 1.019-3.006 3.056-3.006h7.708v1.332h-6.064c-.949 0-1.424.446-1.424 1.338v4.279zm8.637 8.37V79.57l.546.086c1.6.251 2.676.376 3.229.376 2.163 0 3.245-.726 3.245-2.176 0-.772-.428-1.497-1.284-2.176-.305-.222-1.062-.673-2.27-1.351-1.208-.679-2.035-1.293-2.48-1.842-.657-.807-.985-1.702-.985-2.685 0-1.638.768-2.883 2.303-3.737.82-.457 1.992-.685 3.516-.685.878 0 2.085.128 3.62.384v1.167c-1.232-.146-2.296-.219-3.188-.219-2.079 0-3.118.697-3.118 2.091 0 .621.322 1.2.969 1.739.293.234.886.603 1.778 1.106 1.456.82 2.53 1.57 3.223 2.249.892.879 1.338 1.892 1.338 3.04 0 1.441-.593 2.565-1.778 3.374-1.044.702-2.318 1.054-3.82 1.054-1.06-.002-2.673-.187-4.844-.559zM167.087.971l7.093 7.257-45.703 45.702h-14.209zM78.563 89.557h14.319L77.059 105.38l-7.181-7.18z"/><path fill="#53B748" d="M101.177 89.467l14.313.09-15.824 15.824-7.199-7.2zM190.639 0l7.308 7.292-46.696 46.638h-14.524z"/><path d="M5.419 81.327v-22.32H.451v-1.692h14.472v1.692H9.848v22.32zm12.715-8.891h6.12v1.332h-6.12v4.803c0 .692.105 1.108.316 1.249.152.117.604.176 1.355.176h6.14v1.332h-8.241c-1.897 0-2.847-.92-2.847-2.76V68.493c0-2.004 1.019-3.006 3.056-3.006h7.708v1.332h-6.063c-.949 0-1.424.446-1.424 1.338v4.279zm22.429 4.444l1.281.562c-1.465 2.902-3.656 4.354-6.574 4.354-1.992 0-3.75-.646-5.273-1.936-1.863-1.582-2.795-3.675-2.795-6.277 0-1.595.369-3.072 1.107-4.432.773-1.442 1.839-2.514 3.198-3.218 1.219-.633 2.549-.95 3.991-.95 2.542 0 4.558 1.188 6.047 3.563l-1.439.635c-1.205-1.91-2.691-2.865-4.458-2.865-1.603 0-2.808.681-3.615 2.043-.725 1.222-1.088 2.749-1.088 4.581 0 1.997.311 3.642.931 4.934.831 1.727 2.13 2.59 3.896 2.59 2.129 0 3.727-1.195 4.791-3.584zm3.257 4.447V54.688h3.277v17.1h6.228v-6.301h3.276v15.84h-3.276v-8.208h-6.228v8.208zm15.921 0V67.904c0-1.947.791-2.92 2.373-2.92 1.113 0 2.209.804 3.287 2.412l5.045 7.551c.138.211.282.317.431.317.185 0 .276-.176.276-.528v-9.428h1.584v14.689c0 1.007-.371 1.51-1.112 1.51-.528 0-1.069-.4-1.622-1.202l-8.044-11.958c-.103-.17-.223-.255-.359-.255-.184 0-.274.146-.274.439v12.797h-1.585zM83.783 65.02c2.356 0 4.356.84 5.998 2.521 1.642 1.681 2.463 3.698 2.463 6.052 0 1.663-.44 3.153-1.319 4.471-.88 1.317-2.088 2.304-3.624 2.96-1.195.516-2.403.773-3.623.773-2.322 0-4.301-.765-5.937-2.293s-2.454-3.551-2.454-6.069c0-3.583 1.566-6.107 4.697-7.571a8.81 8.81 0 0 1 3.799-.844zm.15 1.332c-1.581-.012-2.816.633-3.706 1.933-.797 1.16-1.195 2.818-1.195 4.973 0 4.804 1.581 7.206 4.743 7.206 3.174 0 4.761-2.479 4.761-7.435-.001-4.416-1.535-6.642-4.603-6.677zm10.864-11.664h3.275v24.376c0 .621.246.932.737.932h2.035v1.332H96.83c-1.355 0-2.033-.756-2.033-2.267V54.688zm15.264 10.332c2.357 0 4.356.84 5.998 2.521 1.642 1.681 2.463 3.698 2.463 6.052 0 1.663-.44 3.153-1.319 4.471-.88 1.317-2.087 2.304-3.624 2.96-1.195.516-2.403.773-3.623.773-2.321 0-4.301-.765-5.937-2.293s-2.453-3.551-2.453-6.069c0-3.583 1.565-6.107 4.696-7.571a8.813 8.813 0 0 1 3.799-.844zm.149 1.332c-1.581-.012-2.816.633-3.706 1.933-.797 1.16-1.194 2.818-1.194 4.973 0 4.804 1.581 7.206 4.742 7.206 3.175 0 4.762-2.479 4.762-7.435-.001-4.416-1.535-6.642-4.604-6.677zm21.808 6.839h3.276v15.264h-3.276v-8.341c-1.174.977-2.531 1.465-4.069 1.465-2.185 0-4.005-.849-5.462-2.547-1.373-1.617-2.061-3.531-2.061-5.745 0-2.413.709-4.421 2.127-6.026 1.477-1.686 3.404-2.529 5.783-2.529 2.496 0 4.559 1.156 6.188 3.468l-1.529.683c-1.195-1.879-2.607-2.818-4.236-2.818-1.677 0-2.913.815-3.71 2.446-.609 1.243-.914 2.804-.914 4.681 0 2.112.388 3.801 1.164 5.068.812 1.326 1.94 1.988 3.387 1.988 1.328 0 2.299-.556 2.909-1.667.283-.515.424-1.252.424-2.212v-3.178zm6.282 8.136v-15.84h3.276v15.84H138.3zm1.655-23.975c.634 0 1.17.226 1.609.677s.66.994.66 1.626c0 .633-.227 1.175-.678 1.627a2.22 2.22 0 0 1-1.627.677c-.645 0-1.19-.226-1.636-.677-.445-.452-.668-1-.668-1.644 0-.645.229-1.188.686-1.627a2.304 2.304 0 0 1 1.654-.659zm7.878 15.084h6.12v1.332h-6.12v4.803c0 .692.105 1.108.317 1.249.152.117.604.176 1.354.176h6.141v1.332h-8.241c-1.898 0-2.847-.92-2.847-2.76V68.493c0-2.004 1.019-3.006 3.056-3.006h7.708v1.332h-6.064c-.949 0-1.424.446-1.424 1.338v4.279zm8.637 8.37V79.57l.546.086c1.6.251 2.676.376 3.229.376 2.163 0 3.245-.726 3.245-2.176 0-.772-.428-1.497-1.284-2.176-.305-.222-1.062-.673-2.27-1.351-1.208-.679-2.035-1.293-2.48-1.842-.657-.807-.985-1.702-.985-2.685 0-1.638.768-2.883 2.303-3.737.82-.457 1.992-.685 3.516-.685.878 0 2.085.128 3.62.384v1.167c-1.232-.146-2.296-.219-3.188-.219-2.079 0-3.118.697-3.118 2.091 0 .621.322 1.2.969 1.739.293.234.886.603 1.778 1.106 1.456.82 2.53 1.57 3.223 2.249.892.879 1.338 1.892 1.338 3.04 0 1.441-.593 2.565-1.778 3.374-1.044.702-2.318 1.054-3.82 1.054-1.06-.002-2.673-.187-4.844-.559z" fill="#034EA2"/></g></svg>